<svg width="25" height="25" viewBox="0 0 25 25" fill="none" xmlns="http://www.w3.org/2000/svg">
<path fill-rule="evenodd" clip-rule="evenodd" d="M6.77 5.88687C8.1971 4.64663 9.98892 3.90427 11.875 3.77187V5C11.875 5.16576 11.9408 5.32473 12.0581 5.44194C12.1753 5.55915 12.3342 5.625 12.5 5.625C12.6658 5.625 12.8247 5.55915 12.9419 5.44194C13.0592 5.32473 13.125 5.16576 13.125 5V3.77187C15.0108 3.90423 16.8024 4.64635 18.2294 5.88625L17.3606 6.755C17.2434 6.87228 17.1776 7.0313 17.1777 7.1971C17.1777 7.36289 17.2437 7.52187 17.3609 7.63906C17.4782 7.75625 17.6372 7.82206 17.803 7.822C17.9688 7.82194 18.1278 7.75603 18.245 7.63875L19.1138 6.77C20.3535 8.19726 21.0955 9.98907 21.2275 11.875H20C19.8342 11.875 19.6753 11.9408 19.5581 12.0581C19.4408 12.1753 19.375 12.3342 19.375 12.5C19.375 12.6658 19.4408 12.8247 19.5581 12.9419C19.6753 13.0592 19.8342 13.125 20 13.125H21.2281C21.0955 15.0109 20.3532 16.8024 19.1131 18.2294L18.245 17.3612C18.1271 17.2474 17.9692 17.1844 17.8054 17.1858C17.6415 17.1873 17.4847 17.253 17.3689 17.3689C17.253 17.4847 17.1873 17.6415 17.1858 17.8054C17.1844 17.9692 17.2474 18.1271 17.3612 18.245L18.2294 19.1138C16.8023 20.3534 15.0107 21.0953 13.125 21.2275V20C13.125 19.8342 13.0592 19.6753 12.9419 19.5581C12.8247 19.4408 12.6658 19.375 12.5 19.375C12.3342 19.375 12.1753 19.4408 12.0581 19.5581C11.9408 19.6753 11.875 19.8342 11.875 20V21.2281C9.98921 21.0958 8.19764 20.3536 6.77063 19.1138L7.63875 18.245C7.75252 18.127 7.8154 17.9691 7.81387 17.8052C7.81233 17.6414 7.74649 17.4847 7.63052 17.3689C7.51456 17.2531 7.35775 17.1874 7.19388 17.1861C7.03 17.1848 6.87217 17.2479 6.75438 17.3619L5.88625 18.2294C4.64639 16.8023 3.90428 15.0108 3.77187 13.125H5C5.16576 13.125 5.32473 13.0592 5.44194 12.9419C5.55915 12.8247 5.625 12.6658 5.625 12.5C5.625 12.3342 5.55915 12.1753 5.44194 12.0581C5.32473 11.9408 5.16576 11.875 5 11.875H3.77187C3.90423 9.98921 4.64635 8.19764 5.88625 6.77063L6.755 7.63937C6.87228 7.75657 7.0313 7.82237 7.1971 7.82231C7.36289 7.82226 7.52187 7.75634 7.63906 7.63906C7.75625 7.52179 7.82206 7.36276 7.822 7.19697C7.82194 7.03117 7.75603 6.87219 7.63875 6.755L6.77 5.88687ZM10 13.125C10.3315 13.125 10.6495 13.2567 10.8839 13.4911C11.1183 13.7255 11.25 14.0435 11.25 14.375C11.25 14.7065 11.1183 15.0245 10.8839 15.2589C10.6495 15.4933 10.3315 15.625 10 15.625C9.66848 15.625 9.35054 15.4933 9.11612 15.2589C8.8817 15.0245 8.75 14.7065 8.75 14.375C8.75 14.0435 8.8817 13.7255 9.11612 13.4911C9.35054 13.2567 9.66848 13.125 10 13.125ZM13.125 9.375C13.125 9.04348 12.9933 8.72554 12.7589 8.49112C12.5245 8.2567 12.2065 8.125 11.875 8.125C11.5435 8.125 11.2255 8.2567 10.9911 8.49112C10.7567 8.72554 10.625 9.04348 10.625 9.375C10.625 9.70652 10.7567 10.0245 10.9911 10.2589C11.2255 10.4933 11.5435 10.625 11.875 10.625C12.2065 10.625 12.5245 10.4933 12.7589 10.2589C12.9933 10.0245 13.125 9.70652 13.125 9.375ZM15.625 12.5C15.9565 12.5 16.2745 12.6317 16.5089 12.8661C16.7433 13.1005 16.875 13.4185 16.875 13.75C16.875 14.0815 16.7433 14.3995 16.5089 14.6339C16.2745 14.8683 15.9565 15 15.625 15C15.2935 15 14.9755 14.8683 14.7411 14.6339C14.5067 14.3995 14.375 14.0815 14.375 13.75C14.375 13.4185 14.5067 13.1005 14.7411 12.8661C14.9755 12.6317 15.2935 12.5 15.625 12.5ZM10.625 0.625C10.625 0.45924 10.6908 0.300269 10.8081 0.183058C10.9253 0.0658481 11.0842 0 11.25 0H13.75C13.9158 0 14.0747 0.0658481 14.1919 0.183058C14.3092 0.300269 14.375 0.45924 14.375 0.625C14.375 0.79076 14.3092 0.949731 14.1919 1.06694C14.0747 1.18415 13.9158 1.25 13.75 1.25H13.125V2.5C13.125 2.66576 13.0592 2.82473 12.9419 2.94194C12.8247 3.05915 12.6658 3.125 12.5 3.125C12.3342 3.125 12.1753 3.05915 12.0581 2.94194C11.9408 2.82473 11.875 2.66576 11.875 2.5V1.25H11.25C11.0842 1.25 10.9253 1.18415 10.8081 1.06694C10.6908 0.949731 10.625 0.79076 10.625 0.625ZM12.5 21.875C12.6658 21.875 12.8247 21.9408 12.9419 22.0581C13.0592 22.1753 13.125 22.3342 13.125 22.5V23.75H13.75C13.9158 23.75 14.0747 23.8158 14.1919 23.9331C14.3092 24.0503 14.375 24.2092 14.375 24.375C14.375 24.5408 14.3092 24.6997 14.1919 24.8169C14.0747 24.9342 13.9158 25 13.75 25H11.25C11.0842 25 10.9253 24.9342 10.8081 24.8169C10.6908 24.6997 10.625 24.5408 10.625 24.375C10.625 24.2092 10.6908 24.0503 10.8081 23.9331C10.9253 23.8158 11.0842 23.75 11.25 23.75H11.875V22.5C11.875 22.3342 11.9408 22.1753 12.0581 22.0581C12.1753 21.9408 12.3342 21.875 12.5 21.875ZM5.42875 22.2231C5.31155 22.3403 5.1526 22.4061 4.98688 22.4061C4.82115 22.4061 4.6622 22.3403 4.545 22.2231L2.77687 20.455C2.71885 20.3969 2.67283 20.328 2.64144 20.2521C2.61005 20.1763 2.59391 20.095 2.59394 20.0129C2.59396 19.9308 2.61016 19.8495 2.64161 19.7737C2.67305 19.6979 2.71912 19.629 2.77719 19.5709C2.83526 19.5129 2.90419 19.4669 2.98004 19.4355C3.0559 19.4041 3.13719 19.388 3.21928 19.388C3.30138 19.388 3.38266 19.4042 3.45849 19.4357C3.53432 19.4671 3.60322 19.5132 3.66125 19.5712L4.10312 20.0131L4.98688 19.1294C5.04453 19.0697 5.11349 19.0221 5.18975 18.9893C5.266 18.9566 5.34801 18.9393 5.431 18.9386C5.51399 18.9379 5.59629 18.9537 5.6731 18.9851C5.74991 19.0165 5.81969 19.0629 5.87837 19.1216C5.93705 19.1803 5.98346 19.2501 6.01489 19.3269C6.04631 19.4037 6.06213 19.486 6.06141 19.569C6.06069 19.652 6.04344 19.734 6.01069 19.8103C5.97793 19.8865 5.93032 19.9555 5.87062 20.0131L4.98688 20.8969L5.42875 21.3387C5.48686 21.3968 5.53296 21.4657 5.56441 21.5416C5.59587 21.6175 5.61205 21.6988 5.61205 21.7809C5.61205 21.8631 5.59587 21.9444 5.56441 22.0203C5.53296 22.0961 5.48686 22.1651 5.42875 22.2231ZM19.1287 5.87125C19.0116 5.75405 18.9458 5.5951 18.9458 5.42938C18.9458 5.26365 19.0116 5.1047 19.1287 4.9875L20.0131 4.10312L19.5706 3.66125C19.4534 3.54397 19.3876 3.38495 19.3877 3.21915C19.3877 3.05336 19.4537 2.89438 19.5709 2.77719C19.6882 2.65999 19.8472 2.59419 20.013 2.59425C20.1788 2.59431 20.3378 2.66022 20.455 2.7775L22.2225 4.545C22.3398 4.66219 22.4057 4.82117 22.4058 4.98697C22.4058 5.15276 22.34 5.31179 22.2228 5.42906C22.1056 5.54634 21.9466 5.61226 21.7808 5.61231C21.6151 5.61237 21.456 5.54657 21.3387 5.42938L20.8969 4.9875L20.0131 5.87125C19.9551 5.92936 19.8861 5.97546 19.8103 6.00691C19.7344 6.03837 19.6531 6.05455 19.5709 6.05455C19.4888 6.05455 19.4075 6.03837 19.3316 6.00691C19.2557 5.97546 19.1868 5.92936 19.1287 5.87125ZM0.625 14.375C0.45924 14.375 0.300269 14.3092 0.183058 14.1919C0.0658481 14.0747 0 13.9158 0 13.75V11.25C0 11.0842 0.0658481 10.9253 0.183058 10.8081C0.300269 10.6908 0.45924 10.625 0.625 10.625C0.79076 10.625 0.949731 10.6908 1.06694 10.8081C1.18415 10.9253 1.25 11.0842 1.25 11.25V11.875H2.5C2.66576 11.875 2.82473 11.9408 2.94194 12.0581C3.05915 12.1753 3.125 12.3342 3.125 12.5C3.125 12.6658 3.05915 12.8247 2.94194 12.9419C2.82473 13.0592 2.66576 13.125 2.5 13.125H1.25V13.75C1.25 13.9158 1.18415 14.0747 1.06694 14.1919C0.949731 14.3092 0.79076 14.375 0.625 14.375ZM21.875 12.5C21.875 12.3342 21.9408 12.1753 22.0581 12.0581C22.1753 11.9408 22.3342 11.875 22.5 11.875H23.75V11.25C23.75 11.0842 23.8158 10.9253 23.9331 10.8081C24.0503 10.6908 24.2092 10.625 24.375 10.625C24.5408 10.625 24.6997 10.6908 24.8169 10.8081C24.9342 10.9253 25 11.0842 25 11.25V13.75C25 13.9158 24.9342 14.0747 24.8169 14.1919C24.6997 14.3092 24.5408 14.375 24.375 14.375C24.2092 14.375 24.0503 14.3092 23.9331 14.1919C23.8158 14.0747 23.75 13.9158 23.75 13.75V13.125H22.5C22.3342 13.125 22.1753 13.0592 22.0581 12.9419C21.9408 12.8247 21.875 12.6658 21.875 12.5ZM2.77687 5.42938C2.71876 5.37133 2.67267 5.3024 2.64121 5.22653C2.60976 5.15065 2.59357 5.06932 2.59357 4.98719C2.59357 4.90505 2.60976 4.82372 2.64121 4.74785C2.67267 4.67198 2.71876 4.60305 2.77687 4.545L4.545 2.7775C4.60265 2.71781 4.67162 2.67019 4.74787 2.63744C4.82412 2.60468 4.90614 2.58744 4.98912 2.58672C5.07211 2.586 5.15441 2.60181 5.23122 2.63324C5.30803 2.66466 5.37781 2.71107 5.4365 2.76975C5.49518 2.82844 5.54159 2.89822 5.57301 2.97503C5.60444 3.05184 5.62025 3.13414 5.61953 3.21713C5.61881 3.30011 5.60157 3.38213 5.56881 3.45838C5.53606 3.53463 5.48844 3.6036 5.42875 3.66125L4.98688 4.10312L5.87062 4.9875C5.98447 5.10538 6.04747 5.26325 6.04605 5.42713C6.04462 5.591 5.97889 5.74776 5.86301 5.86364C5.74713 5.97952 5.59037 6.04525 5.4265 6.04667C5.26263 6.0481 5.10475 5.9851 4.98688 5.87125L4.10312 4.98688L3.66125 5.42938C3.6032 5.48749 3.53427 5.53358 3.4584 5.56504C3.38253 5.59649 3.3012 5.61268 3.21906 5.61268C3.13693 5.61268 3.0556 5.59649 2.97973 5.56504C2.90385 5.53358 2.83492 5.48749 2.77687 5.42938ZM19.1287 19.1294C19.1868 19.0713 19.2557 19.0252 19.3316 18.9937C19.4075 18.9623 19.4888 18.9461 19.5709 18.9461C19.6531 18.9461 19.7344 18.9623 19.8103 18.9937C19.8861 19.0252 19.9551 19.0713 20.0131 19.1294L20.8969 20.0131L21.3387 19.5712C21.4566 19.4574 21.6145 19.3944 21.7784 19.3958C21.9422 19.3973 22.099 19.463 22.2149 19.5789C22.3308 19.6947 22.3965 19.8515 22.3979 20.0154C22.3993 20.1792 22.3363 20.3371 22.2225 20.455L20.455 22.2231C20.3377 22.3404 20.1787 22.4063 20.0128 22.4063C19.847 22.4063 19.6879 22.3404 19.5706 22.2231C19.4533 22.1058 19.3875 21.9468 19.3875 21.7809C19.3875 21.6151 19.4533 21.456 19.5706 21.3387L20.0131 20.8969L19.1287 20.0131C19.0116 19.8959 18.9458 19.737 18.9458 19.5712C18.9458 19.4055 19.0116 19.2466 19.1287 19.1294Z" fill="#1DA584"/>
</svg>
